<?xml version="1.0" encoding="UTF-8"?>
<svg width="120px" height="26px" viewBox="0 0 120 26" version="1.1" xmlns="http://www.w3.org/2000/svg" xmlns:xlink="http://www.w3.org/1999/xlink">
    <!-- Generator: Sketch 55.2 (78181) - https://sketchapp.com -->
    <title>logo</title>
    <desc>Created with Sketch.</desc>
    <g id="Styleguide" stroke="none" stroke-width="1" fill="none" fill-rule="evenodd">
        <g id="1.1-styleguide" transform="translate(-490.000000, -647.000000)" fill="#FFFFFF" fill-rule="nonzero">
            <g id="logo" transform="translate(490.000000, 647.000000)">
                <path d="M19.8884599,4.53949937 L20.7607608,0.463320463 L28.2625483,0.463320463 L22.958959,25.4826255 L15.1082511,25.4826255 L11.7586158,16.5923387 C11.1654512,15.0110624 10.6420706,13.5000651 10.1884742,12.0593467 C9.5953096,15.3273177 9.002145,18.4195913 8.37408837,21.4064466 L7.5017875,25.4826255 L0,25.4826255 L5.3035893,0.463320463 L13.1891892,0.463320463 L16.4341484,9.35360722 C16.8179608,10.3726519 17.3064493,12.0242072 17.9345059,14.3785519 C18.3881024,11.637673 19.0510511,8.36970197 19.8884599,4.53949937 Z M50.5019305,0.463320463 L49.0477589,7.28037829 L36.6873007,7.28037829 L36.1679537,9.74014143 L47.6282105,9.74014143 L46.2432852,16.3112229 L34.7830284,16.3112229 L34.2636814,18.6655677 L46.6933859,18.6655677 L45.2392144,25.4826255 L25.019305,25.4826255 L30.2820212,0.463320463 L50.5019305,0.463320463 Z M66.7793599,0.463320463 L75.5212355,0.463320463 L65.2469196,12.1296256 L71.3070246,25.4826255 L62.4258362,25.4826255 L61.5551314,23.1985597 C60.7889113,21.2307492 60.196832,19.6143334 59.7440656,18.3141729 C58.6643917,19.8251703 57.3409205,21.4767255 55.8433083,23.1985597 L53.8581015,25.4826255 L44.9420849,25.4826255 L56.7836694,12.6567177 L51.2111591,0.463320463 L59.9878629,0.463320463 L60.8237395,2.67710728 C61.1371932,3.48531517 61.5551314,4.71519674 62.1123825,6.40189146 C63.2268845,4.82061516 64.1672457,3.55559412 64.9334658,2.64196781 L66.7793599,0.463320463 Z M82.9432233,25.9459459 C79.3026941,25.9459459 76.5372921,24.9308414 74.6820225,22.9006322 C72.8267528,20.9054266 72.3016765,17.9651237 73.1067935,14.1497306 L76.0472209,0.463320463 L84.028381,0.463320463 L80.9479333,15.1298316 C80.3878519,17.755102 81.5780249,19.1552463 83.7833454,19.1552463 C85.9186558,19.1552463 87.5989,17.8601129 88.0539662,15.4798676 L91.1344139,0.463320463 L99.1505792,0.463320463 L95.7900907,16.5299758 C94.5299075,22.5155925 89.8042206,25.9459459 82.9432233,25.9459459 Z M105.962939,25.9459459 C98.1427001,25.9459459 94.7562574,22.4934612 95.5592283,17.3321709 L103.309644,17.3321709 C103.204908,19.1804708 104.426821,19.9476896 106.696086,19.9476896 C108.93044,19.9476896 109.768323,19.5292066 110.012706,18.5178727 C110.292,17.2624237 109.489029,16.7044464 106.870645,16.2510898 L103.972968,15.7279861 C99.4693478,14.8910201 97.1302585,11.7872711 98.1077883,7.04446382 C99.0504064,2.33653008 102.890702,0 109.558852,0 C116.436473,0 120.067298,2.89450741 119.473798,8.23016565 L112.107412,8.23016565 C112.107412,6.73060157 111.060059,5.99825632 108.965352,5.99825632 C107.184851,5.99825632 106.17241,6.48648649 105.962939,7.42807323 C105.718557,8.50915432 106.312057,9.06713165 107.813263,9.34612031 L111.479,10.0087184 C116.785591,10.9851787 118.880298,14.0889276 117.902768,18.7968614 C116.890326,23.5745423 112.910383,25.9459459 105.962939,25.9459459 Z" id="NEXUS"></path>
            </g>
        </g>
    </g>
</svg>